# xmcd
# Track frame offsets:
# 150
# 16532
# 30521
# 48391
# 60774
# 75833
# 92740
# 111167
# 136230
# 152585
# 169651
#
# Disc length: 2441 seconds
# Revision: 0
# Processed by: cddbd v1.5.1PL0 Copyright (c) Steve Scherf et al.
# Submitted via: VisiTrax 2.9.10.228 - For more info visit www.synapsa.com
#
DISCID=6b09870b
DTITLE=Pernice Brothers - The World won't end
DYEAR=2001
DGENRE=country
TTITLE0=Working girls (Sunshine shines)
TTITLE1=7.30
TTITLE2=Our time has passed
TTITLE3=She heightened everything
TTITLE4=Bryte side
TTITLE5=Let that show
TTITLE6=Shaken baby
TTITLE7=Flaming wreck
TTITLE8=The Ballad of Bjorn Borg
TTITLE9=Endless supply
TTITLE10=Cronulla breakdown
EXTD=
EXTT0=
EXTT1=
EXTT2=
EXTT3=
EXTT4=
EXTT5=
EXTT6=
EXTT7=
EXTT8=
EXTT9=
EXTT10=
PLAYORDER=
